<svg xmlns="http://www.w3.org/2000/svg" width="256" height="256" viewBox="0 0 100 100"><rect width="100" height="100" rx="20" fill="#008080"></rect><path fill="#fff" d="M75.78 39.72L63.28 39.72Q62.68 37.64 61.61 36.04Q60.53 34.43 58.98 33.31Q57.43 32.19 55.45 31.59Q53.48 30.99 51.09 30.99L51.09 30.99Q46.63 30.99 43.27 33.21Q39.90 35.43 38.03 39.64Q36.15 43.86 36.15 49.94L36.15 49.94Q36.15 56.02 38.00 60.28Q39.84 64.55 43.22 66.78Q46.61 69.01 51.21 69.01L51.21 69.01Q55.38 69.01 58.35 67.51Q61.32 66.02 62.90 63.30Q64.47 60.57 64.47 56.85L64.47 56.85L66.97 57.22L51.97 57.22L51.97 47.95L76.32 47.95L76.32 55.28Q76.32 62.95 73.08 68.45Q69.84 73.95 64.16 76.92Q58.48 79.89 51.15 79.89L51.15 79.89Q42.97 79.89 36.78 76.26Q30.58 72.64 27.13 65.95Q23.68 59.26 23.68 50.06L23.68 50.06Q23.68 42.98 25.74 37.43Q27.80 31.88 31.52 28.01Q35.24 24.15 40.18 22.13Q45.13 20.11 50.89 20.11L50.89 20.11Q55.84 20.11 60.10 21.55Q64.36 22.98 67.67 25.60Q70.98 28.21 73.08 31.80Q75.18 35.40 75.78 39.72L75.78 39.72Z"></path></svg>